# xmcd
#
# Track frame offsets:
#	183
#	11893
#	22205
#	36680
#	48655
#	61243
#	74168
#	86893
#	97878
#	108498
#	123193
#	133223
#	145275
#	154510
#	163493
#	174175
#	186785
#	199555
#
# Disc length: 2787 seconds
#
# Revision: 1
# Processed by: cddbd v1.5.1PL2 Copyright (c) Steve Scherf et al.
# Submitted via: EasyCDDAExtractor 6.0.0.1
#
DISCID=0f0ae112
DTITLE=Various Artist - Country Music CM012 - Rockabilly Special
DYEAR=1999
DGENRE=Country
TTITLE0=Carl Perkins - Born To Boogie
TTITLE1=Carl Perkins - Daddy Sang Bass
TTITLE2=Carl Perkins - Redneck
TTITLE3=Carl Perkins - Standing In The Need Of Love
TTITLE4=Carl Perkins - Mama
TTITLE5=Carl Perkins - We Did In 54
TTITLE6=Carl Perkins - Disciple In Blue Suede Shoes
TTITLE7=Carl Perkins - I Can Feel It
TTITLE8=Carl Perkins - What Am I Living For
TTITLE9=Gene Vincent - Story Of The Rockets
TTITLE10=Gene Vincent - Pickin' Poppies
TTITLE11=Gene Vincent - Be Bop A Lula # 5 ('56)
TTITLE12=Gene Vincent - Pistol Packing Mama
TTITLE13=Gene Vincent - Say Mama
TTITLE14=Gene Vincent - Rocky Road Blues
TTITLE15=Gene Vincent - Baby Blue
TTITLE16=Gene Vincent - Whole Lotta Shakin' Goin' On
TTITLE17=Gene Vincent - The Day The World Turned Blue
EXTD=
EXTT0=
EXTT1=
EXTT2=
EXTT3=
EXTT4=
EXTT5=
EXTT6=
EXTT7=
EXTT8=
EXTT9=
EXTT10=
EXTT11=
EXTT12=
EXTT13=
EXTT14=
EXTT15=
EXTT16=
EXTT17=
PLAYORDER=
